# 3ds Max Wavefront OBJ Exporter v0.97b - (c)2007 guruware
# 创建的文件:12.11.2015 16:55:42

#
# object default
#

v  0.0000 0.0000 10.0000
v  -100.0000 0.0000 10.0000
v  -96.5900 -25.8800 10.0000
v  -86.6000 -50.0000 10.0000
v  -96.5900 25.8800 10.0000
v  -86.6000 50.0000 10.0000
v  -70.7100 70.7100 10.0000
v  -70.7100 -70.7100 10.0000
v  -50.0000 -86.6000 10.0000
v  -25.8800 -96.5900 10.0000
v  0.0000 -100.0000 10.0000
v  -100.0000 0.0000 50.0000
v  -96.5900 -25.8800 50.0000
v  -86.6000 -50.0000 50.0000
v  -70.7100 -70.7100 50.0000
v  -50.0000 -86.6000 50.0000
v  -25.8800 -96.5900 50.0000
v  -96.5900 25.8800 50.0000
v  -86.6000 50.0000 50.0000
v  -70.7100 70.7100 50.0000
v  -50.0000 86.6000 10.0000
v  -50.0000 86.6000 50.0000
v  -25.8800 96.5900 10.0000
v  -25.8800 96.5900 50.0000
v  0.0000 100.0000 10.0000
v  0.0000 100.0000 50.0000
v  25.8800 96.5900 10.0000
v  25.8800 96.5900 50.0000
v  50.0000 86.6000 10.0000
v  50.0000 86.6000 50.0000
v  70.7100 70.7100 10.0000
v  70.7100 70.7100 50.0000
v  86.6000 50.0000 10.0000
v  86.6000 50.0000 50.0000
v  96.5900 25.8800 10.0000
v  96.5900 25.8800 50.0000
v  100.0000 0.0000 10.0000
v  100.0000 0.0000 50.0000
v  96.5900 -25.8800 10.0000
v  96.5900 -25.8800 50.0000
v  86.6000 -50.0000 10.0000
v  86.6000 -50.0000 50.0000
v  70.7100 -70.7100 10.0000
v  70.7100 -70.7100 50.0000
v  50.0000 -86.6000 10.0000
v  50.0000 -86.6000 50.0000
v  25.8800 -96.5900 10.0000
v  25.8800 -96.5900 50.0000
v  0.0000 -100.0000 50.0000
v  -110.0000 0.0000 50.0000
v  -106.2500 -28.4700 50.0000
v  -95.2600 -55.0000 50.0000
v  -77.7800 -77.7800 50.0000
v  -55.0000 -95.2600 50.0000
v  -28.4700 -106.2500 50.0000
v  -106.2500 28.4700 50.0000
v  -95.2600 55.0000 50.0000
v  -77.7800 77.7800 50.0000
v  -55.0000 95.2600 50.0000
v  -28.4700 106.2500 50.0000
v  0.0000 110.0000 50.0000
v  28.4700 106.2500 50.0000
v  55.0000 95.2600 50.0000
v  77.7800 77.7800 50.0000
v  95.2600 55.0000 50.0000
v  106.2500 28.4700 50.0000
v  110.0000 0.0000 50.0000
v  106.2500 -28.4700 50.0000
v  95.2600 -55.0000 50.0000
v  77.7800 -77.7800 50.0000
v  55.0000 -95.2600 50.0000
v  28.4700 -106.2500 50.0000
v  0.0000 -110.0000 50.0000
v  -110.0000 0.0000 6.8900
v  -106.2500 -28.4700 6.8900
v  -95.2600 -55.0000 6.8900
v  -77.7800 -77.7800 6.8900
v  -55.0000 -95.2600 6.8900
v  -28.4700 -106.2500 6.8900
v  0.0000 -110.0000 6.8900
v  -106.2500 28.4700 6.8900
v  -95.2600 55.0000 6.8900
v  -77.7800 77.7800 6.8900
v  -55.0000 95.2600 6.8900
v  -28.4700 106.2500 6.8900
v  0.0000 110.0000 6.8900
v  28.4700 106.2500 6.8900
v  55.0000 95.2600 6.8900
v  77.7800 77.7800 6.8900
v  95.2600 55.0000 6.8900
v  106.2500 28.4700 6.8900
v  110.0000 0.0000 6.8900
v  106.2500 -28.4700 6.8900
v  95.2600 -55.0000 6.8900
v  77.7800 -77.7800 6.8900
v  55.0000 -95.2600 6.8900
v  28.4700 -106.2500 6.8900
v  -103.1000 0.0000 0.0000
v  -99.5900 -26.6800 0.0000
v  -89.2900 -51.5500 0.0000
v  -72.9000 -72.9000 0.0000
v  -51.5500 -89.2900 0.0000
v  -26.6800 -99.5900 0.0000
v  0.0000 -103.1000 0.0000
v  -99.5900 26.6800 0.0000
v  -89.2900 51.5500 0.0000
v  -72.9000 72.9000 0.0000
v  -51.5500 89.2900 0.0000
v  -26.6800 99.5900 0.0000
v  0.0000 103.1000 0.0000
v  26.6800 99.5900 0.0000
v  51.5500 89.2900 0.0000
v  72.9000 72.9000 0.0000
v  89.2900 51.5500 0.0000
v  99.5900 26.6800 0.0000
v  103.1000 0.0000 0.0000
v  99.5900 -26.6800 0.0000
v  89.2900 -51.5500 0.0000
v  72.9000 -72.9000 0.0000
v  51.5500 -89.2900 0.0000
v  26.6800 -99.5900 0.0000
v  0.0000 0.0000 0.0000
# 122 vertices

vn 0.0000 0.0000 1.0000
vn 1.0000 0.0000 0.0000
vn 0.9659 0.2588 0.0000
vn 0.8660 0.5000 0.0000
vn 0.7071 0.7071 0.0000
vn 0.5000 0.8660 0.0000
vn 0.2588 0.9659 0.0000
vn 0.9659 -0.2588 0.0000
vn 0.8660 -0.5000 0.0000
vn 0.7071 -0.7071 0.0000
vn 0.5000 -0.8660 0.0000
vn 0.2588 -0.9659 0.0000
vn 0.0000 -1.0000 0.0000
vn -0.2588 -0.9659 0.0000
vn -0.5000 -0.8660 0.0000
vn -0.7071 -0.7071 0.0000
vn -0.8660 -0.5000 0.0000
vn -0.9659 -0.2588 0.0000
vn -1.0000 0.0000 0.0000
vn -0.9659 0.2588 0.0000
vn -0.8660 0.5000 0.0000
vn -0.7071 0.7071 0.0000
vn -0.5000 0.8660 0.0000
vn -0.2588 0.9659 0.0000
vn 0.0000 1.0000 0.0000
vn -0.7063 0.0000 -0.7079
vn -0.6823 -0.1828 -0.7079
vn -0.6117 -0.3532 -0.7079
vn -0.4995 -0.4995 -0.7079
vn -0.3532 -0.6117 -0.7079
vn -0.1828 -0.6823 -0.7079
vn 0.0000 -0.7063 -0.7079
vn -0.6823 0.1828 -0.7079
vn -0.6117 0.3532 -0.7079
vn -0.4995 0.4995 -0.7079
vn -0.3532 0.6117 -0.7079
vn -0.1828 0.6823 -0.7079
vn 0.0000 0.7063 -0.7079
vn 0.1828 0.6823 -0.7079
vn 0.3532 0.6117 -0.7079
vn 0.4995 0.4995 -0.7079
vn 0.6117 0.3532 -0.7079
vn 0.6823 0.1828 -0.7079
vn 0.7063 0.0000 -0.7079
vn 0.6823 -0.1828 -0.7079
vn 0.6117 -0.3532 -0.7079
vn 0.4995 -0.4995 -0.7079
vn 0.3532 -0.6117 -0.7079
vn 0.1828 -0.6823 -0.7079
vn 0.0000 0.0000 -1.0000
# 50 vertex normals

vt 0.5000 0.7997 0.0000
vt 0.7500 0.7997 0.0000
vt 0.7917 0.7997 0.0000
vt 0.8333 0.7997 0.0000
vt 0.7083 0.7997 0.0000
vt 0.6667 0.7997 0.0000
vt 0.6250 0.7997 0.0000
vt 0.8750 0.7997 0.0000
vt 0.9167 0.7997 0.0000
vt 0.9583 0.7997 0.0000
vt 1.0000 0.7997 0.0000
vt 0.7500 0.0005 0.0000
vt 0.7917 0.0005 0.0000
vt 0.8333 0.0005 0.0000
vt 0.8750 0.0005 0.0000
vt 0.9167 0.0005 0.0000
vt 0.9583 0.0005 0.0000
vt 0.7083 0.0005 0.0000
vt 0.6667 0.0005 0.0000
vt 0.6250 0.0005 0.0000
vt 0.5833 0.7997 0.0000
vt 0.5833 0.0005 0.0000
vt 0.5417 0.7997 0.0000
vt 0.5417 0.0005 0.0000
vt 0.5000 0.0005 0.0000
vt 0.4583 0.7997 0.0000
vt 0.4583 0.0005 0.0000
vt 0.4167 0.7997 0.0000
vt 0.4167 0.0005 0.0000
vt 0.3750 0.7997 0.0000
vt 0.3750 0.0005 0.0000
vt 0.3333 0.7997 0.0000
vt 0.3333 0.0005 0.0000
vt 0.2917 0.7997 0.0000
vt 0.2917 0.0005 0.0000
vt 0.2500 0.7997 0.0000
vt 0.2500 0.0005 0.0000
vt 0.2083 0.7997 0.0000
vt 0.2083 0.0005 0.0000
vt 0.1667 0.7997 0.0000
vt 0.1667 0.0005 0.0000
vt 0.1250 0.7997 0.0000
vt 0.1250 0.0005 0.0000
vt 0.0833 0.7997 0.0000
vt 0.0833 0.0005 0.0000
vt 0.0417 0.7997 0.0000
vt 0.0417 0.0005 0.0000
vt 0.0000 0.7997 0.0000
vt 0.0000 0.0005 0.0000
vt -0.0417 0.7997 0.0000
vt -0.0417 0.0005 0.0000
vt 0.7500 0.8619 0.0000
vt 0.7917 0.8619 0.0000
vt 0.8333 0.8619 0.0000
vt 0.8750 0.8619 0.0000
vt 0.9167 0.8619 0.0000
vt 0.9583 0.8619 0.0000
vt 1.0000 0.8619 0.0000
vt 0.7083 0.8619 0.0000
vt 0.6667 0.8619 0.0000
vt 0.6250 0.8619 0.0000
vt 0.5833 0.8619 0.0000
vt 0.5417 0.8619 0.0000
vt 0.5000 0.8619 0.0000
vt 0.4583 0.8619 0.0000
vt 0.4167 0.8619 0.0000
vt 0.3750 0.8619 0.0000
vt 0.3333 0.8619 0.0000
vt 0.2917 0.8619 0.0000
vt 0.2500 0.8619 0.0000
vt 0.2083 0.8619 0.0000
vt 0.1667 0.8619 0.0000
vt 0.1250 0.8619 0.0000
vt 0.0833 0.8619 0.0000
vt 0.0417 0.8619 0.0000
vt 0.0000 0.8619 0.0000
vt 0.7500 0.9995 0.0000
vt 0.7917 0.9995 0.0000
vt 0.8333 0.9995 0.0000
vt 0.8750 0.9995 0.0000
vt 0.9167 0.9995 0.0000
vt 0.9583 0.9995 0.0000
vt 1.0000 0.9995 0.0000
vt 0.7083 0.9995 0.0000
vt 0.6667 0.9995 0.0000
vt 0.6250 0.9995 0.0000
vt 0.5833 0.9995 0.0000
vt 0.5417 0.9995 0.0000
vt 0.5000 0.9995 0.0000
vt 0.4583 0.9995 0.0000
vt 0.4167 0.9995 0.0000
vt 0.3750 0.9995 0.0000
vt 0.3333 0.9995 0.0000
vt 0.2917 0.9995 0.0000
vt 0.2500 0.9995 0.0000
vt 0.2083 0.9995 0.0000
vt 0.1667 0.9995 0.0000
vt 0.1250 0.9995 0.0000
vt 0.0833 0.9995 0.0000
vt 0.0417 0.9995 0.0000
vt 0.0000 0.9995 0.0000
# 101 texture coords

g default
s 1
f 1/1/1 2/2/1 3/3/1 
f 1/1/1 3/3/1 4/4/1 
f 1/1/1 5/5/1 2/2/1 
f 1/1/1 6/6/1 5/5/1 
f 1/1/1 7/7/1 6/6/1 
f 1/1/1 8/8/1 9/9/1 
f 1/1/1 9/9/1 10/10/1 
f 1/1/1 10/10/1 11/11/1 
f 2/2/2 12/12/2 13/13/3 
f 2/2/2 13/13/3 3/3/3 
f 3/3/3 13/13/3 14/14/4 
f 3/3/3 14/14/4 4/4/4 
f 4/4/4 14/14/4 15/15/5 
f 4/4/4 15/15/5 8/8/5 
f 8/8/5 15/15/5 16/16/6 
f 8/8/5 16/16/6 9/9/6 
f 9/9/6 16/16/6 17/17/7 
f 9/9/6 17/17/7 10/10/7 
f 5/5/8 12/12/2 2/2/2 
f 5/5/8 18/18/8 12/12/2 
f 6/6/9 18/18/8 5/5/8 
f 6/6/9 19/19/9 18/18/8 
f 7/7/10 19/19/9 6/6/9 
f 7/7/10 20/20/10 19/19/9 
f 21/21/11 20/20/10 7/7/10 
f 21/21/11 22/22/11 20/20/10 
f 23/23/12 22/22/11 21/21/11 
f 23/23/12 24/24/12 22/22/11 
f 25/1/13 24/24/12 23/23/12 
f 25/1/13 26/25/13 24/24/12 
f 27/26/14 26/25/13 25/1/13 
f 27/26/14 28/27/14 26/25/13 
f 29/28/15 28/27/14 27/26/14 
f 29/28/15 30/29/15 28/27/14 
f 31/30/16 30/29/15 29/28/15 
f 31/30/16 32/31/16 30/29/15 
f 33/32/17 32/31/16 31/30/16 
f 33/32/17 34/33/17 32/31/16 
f 35/34/18 34/33/17 33/32/17 
f 35/34/18 36/35/18 34/33/17 
f 37/36/19 36/35/18 35/34/18 
f 37/36/19 38/37/19 36/35/18 
f 39/38/20 38/37/19 37/36/19 
f 39/38/20 40/39/20 38/37/19 
f 41/40/21 40/39/20 39/38/20 
f 41/40/21 42/41/21 40/39/20 
f 43/42/22 42/41/21 41/40/21 
f 43/42/22 44/43/22 42/41/21 
f 45/44/23 44/43/22 43/42/22 
f 45/44/23 46/45/23 44/43/22 
f 47/46/24 46/45/23 45/44/23 
f 47/46/24 48/47/24 46/45/23 
f 11/48/25 48/47/24 47/46/24 
f 11/48/25 49/49/25 48/47/24 
f 10/50/7 49/49/25 11/48/25 
f 10/50/7 17/51/7 49/49/25 
f 12/12/1 50/12/1 51/13/1 
f 12/12/1 51/13/1 13/13/1 
f 13/13/1 51/13/1 52/14/1 
f 13/13/1 52/14/1 14/14/1 
f 14/14/1 52/14/1 53/15/1 
f 14/14/1 53/15/1 15/15/1 
f 15/15/1 53/15/1 54/16/1 
f 15/15/1 54/16/1 16/16/1 
f 16/16/1 54/16/1 55/17/1 
f 16/16/1 55/17/1 17/17/1 
f 18/18/1 50/12/1 12/12/1 
f 18/18/1 56/18/1 50/12/1 
f 19/19/1 56/18/1 18/18/1 
f 19/19/1 57/19/1 56/18/1 
f 20/20/1 57/19/1 19/19/1 
f 20/20/1 58/20/1 57/19/1 
f 22/22/1 58/20/1 20/20/1 
f 22/22/1 59/22/1 58/20/1 
f 24/24/1 59/22/1 22/22/1 
f 24/24/1 60/24/1 59/22/1 
f 26/25/1 60/24/1 24/24/1 
f 26/25/1 61/25/1 60/24/1 
f 28/27/1 61/25/1 26/25/1 
f 28/27/1 62/27/1 61/25/1 
f 30/29/1 62/27/1 28/27/1 
f 30/29/1 63/29/1 62/27/1 
f 32/31/1 63/29/1 30/29/1 
f 32/31/1 64/31/1 63/29/1 
f 34/33/1 64/31/1 32/31/1 
f 34/33/1 65/33/1 64/31/1 
f 36/35/1 65/33/1 34/33/1 
f 36/35/1 66/35/1 65/33/1 
f 38/37/1 66/35/1 36/35/1 
f 38/37/1 67/37/1 66/35/1 
f 40/39/1 67/37/1 38/37/1 
f 40/39/1 68/39/1 67/37/1 
f 42/41/1 68/39/1 40/39/1 
f 42/41/1 69/41/1 68/39/1 
f 44/43/1 69/41/1 42/41/1 
f 44/43/1 70/43/1 69/41/1 
f 46/45/1 70/43/1 44/43/1 
f 46/45/1 71/45/1 70/43/1 
f 48/47/1 71/45/1 46/45/1 
f 48/47/1 72/47/1 71/45/1 
f 49/49/1 72/47/1 48/47/1 
f 49/49/1 73/49/1 72/47/1 
f 17/51/1 73/49/1 49/49/1 
f 17/51/1 55/51/1 73/49/1 
f 50/12/19 74/52/19 75/53/18 
f 50/12/19 75/53/18 51/13/18 
f 51/13/18 75/53/18 76/54/17 
f 51/13/18 76/54/17 52/14/17 
f 52/14/17 76/54/17 77/55/16 
f 52/14/17 77/55/16 53/15/16 
f 53/15/16 77/55/16 78/56/15 
f 53/15/16 78/56/15 54/16/15 
f 54/16/15 78/56/15 79/57/14 
f 54/16/15 79/57/14 55/17/14 
f 55/17/14 79/57/14 80/58/13 
f 56/18/20 74/52/19 50/12/19 
f 56/18/20 81/59/20 74/52/19 
f 57/19/21 81/59/20 56/18/20 
f 57/19/21 82/60/21 81/59/20 
f 58/20/22 82/60/21 57/19/21 
f 58/20/22 83/61/22 82/60/21 
f 59/22/23 83/61/22 58/20/22 
f 59/22/23 84/62/23 83/61/22 
f 60/24/24 84/62/23 59/22/23 
f 60/24/24 85/63/24 84/62/23 
f 61/25/25 85/63/24 60/24/24 
f 61/25/25 86/64/25 85/63/24 
f 62/27/7 86/64/25 61/25/25 
f 62/27/7 87/65/7 86/64/25 
f 63/29/6 87/65/7 62/27/7 
f 63/29/6 88/66/6 87/65/7 
f 64/31/5 88/66/6 63/29/6 
f 64/31/5 89/67/5 88/66/6 
f 65/33/4 89/67/5 64/31/5 
f 65/33/4 90/68/4 89/67/5 
f 66/35/3 90/68/4 65/33/4 
f 66/35/3 91/69/3 90/68/4 
f 67/37/2 91/69/3 66/35/3 
f 67/37/2 92/70/2 91/69/3 
f 68/39/8 92/70/2 67/37/2 
f 68/39/8 93/71/8 92/70/2 
f 69/41/9 93/71/8 68/39/8 
f 69/41/9 94/72/9 93/71/8 
f 70/43/10 94/72/9 69/41/9 
f 70/43/10 95/73/10 94/72/9 
f 71/45/11 95/73/10 70/43/10 
f 71/45/11 96/74/11 95/73/10 
f 72/47/12 96/74/11 71/45/11 
f 72/47/12 97/75/12 96/74/11 
f 73/49/13 97/75/12 72/47/12 
f 73/49/13 80/76/13 97/75/12 
f 55/51/14 80/76/13 73/49/13 
f 74/52/26 98/77/26 99/78/27 
f 74/52/26 99/78/27 75/53/27 
f 75/53/27 99/78/27 100/79/28 
f 75/53/27 100/79/28 76/54/28 
f 76/54/28 100/79/28 101/80/29 
f 76/54/28 101/80/29 77/55/29 
f 77/55/29 101/80/29 102/81/30 
f 77/55/29 102/81/30 78/56/30 
f 78/56/30 102/81/30 103/82/31 
f 78/56/30 103/82/31 79/57/31 
f 79/57/31 103/82/31 104/83/32 
f 79/57/31 104/83/32 80/58/32 
f 81/59/33 98/77/26 74/52/26 
f 81/59/33 105/84/33 98/77/26 
f 82/60/34 105/84/33 81/59/33 
f 82/60/34 106/85/34 105/84/33 
f 83/61/35 106/85/34 82/60/34 
f 83/61/35 107/86/35 106/85/34 
f 84/62/36 107/86/35 83/61/35 
f 84/62/36 108/87/36 107/86/35 
f 85/63/37 108/87/36 84/62/36 
f 85/63/37 109/88/37 108/87/36 
f 86/64/38 109/88/37 85/63/37 
f 86/64/38 110/89/38 109/88/37 
f 87/65/39 110/89/38 86/64/38 
f 87/65/39 111/90/39 110/89/38 
f 88/66/40 111/90/39 87/65/39 
f 88/66/40 112/91/40 111/90/39 
f 89/67/41 112/91/40 88/66/40 
f 89/67/41 113/92/41 112/91/40 
f 90/68/42 113/92/41 89/67/41 
f 90/68/42 114/93/42 113/92/41 
f 91/69/43 114/93/42 90/68/42 
f 91/69/43 115/94/43 114/93/42 
f 92/70/44 115/94/43 91/69/43 
f 92/70/44 116/95/44 115/94/43 
f 93/71/45 116/95/44 92/70/44 
f 93/71/45 117/96/45 116/95/44 
f 94/72/46 117/96/45 93/71/45 
f 94/72/46 118/97/46 117/96/45 
f 95/73/47 118/97/46 94/72/46 
f 95/73/47 119/98/47 118/97/46 
f 96/74/48 119/98/47 95/73/47 
f 96/74/48 120/99/48 119/98/47 
f 97/75/49 120/99/48 96/74/48 
f 97/75/49 121/100/49 120/99/48 
f 80/76/32 121/100/49 97/75/49 
f 80/76/32 104/101/32 121/100/49 
f 98/77/50 122/89/50 99/78/50 
f 99/78/50 122/89/50 100/79/50 
f 100/79/50 122/89/50 101/80/50 
f 101/80/50 122/89/50 102/81/50 
f 102/81/50 122/89/50 103/82/50 
f 103/82/50 122/89/50 104/83/50 
f 105/84/50 122/89/50 98/77/50 
f 106/85/50 122/89/50 105/84/50 
f 1/1/1 4/4/1 8/8/1 
f 1/1/1 37/36/1 35/34/1 
f 1/1/1 35/34/1 33/32/1 
f 1/1/1 33/32/1 31/30/1 
f 1/1/1 31/30/1 29/28/1 
f 1/1/1 29/28/1 27/26/1 
f 1/1/1 27/26/1 25/1/1 
f 1/1/1 25/1/1 23/23/1 
f 1/1/1 23/23/1 21/21/1 
f 1/1/1 21/21/1 7/7/1 
f 1/1/1 11/48/1 47/46/1 
f 1/1/1 47/46/1 45/44/1 
f 1/1/1 45/44/1 43/42/1 
f 1/1/1 43/42/1 41/40/1 
f 1/1/1 41/40/1 39/38/1 
f 1/1/1 39/38/1 37/36/1 
f 104/101/50 122/89/50 121/100/50 
f 121/100/50 122/89/50 120/99/50 
f 120/99/50 122/89/50 119/98/50 
f 119/98/50 122/89/50 118/97/50 
f 118/97/50 122/89/50 117/96/50 
f 116/95/50 122/89/50 115/94/50 
f 117/96/50 122/89/50 116/95/50 
f 115/94/50 122/89/50 114/93/50 
f 114/93/50 122/89/50 113/92/50 
f 113/92/50 122/89/50 112/91/50 
f 112/91/50 122/89/50 111/90/50 
f 111/90/50 122/89/50 110/89/50 
f 110/89/50 122/89/50 109/88/50 
f 109/88/50 122/89/50 108/87/50 
f 108/87/50 122/89/50 107/86/50 
f 107/86/50 122/89/50 106/85/50 
# 240 faces

