# 3ds Max Wavefront OBJ Exporter v0.97b - (c)2007 guruware
# 创建的文件:12.11.2015 19:35:59

mtllib SpiritLampTop.mtl

#
# object default
#

v  28.5670 0.0000 -43.2300
v  28.5670 0.0000 18.5570
v  26.3890 -10.9340 18.5570
v  26.3890 -10.9340 -43.2300
v  22.3300 -9.2510 30.8000
v  24.1670 0.0000 30.8000
v  12.5620 -5.2030 39.6880
v  13.5960 0.0000 39.6880
v  0.0110 0.0000 43.2300
v  20.1960 -20.1960 18.5570
v  20.1960 -20.1960 -43.2300
v  17.0940 -17.0940 30.8000
v  9.6140 -9.6140 39.6880
v  0.0110 -0.0110 43.2300
v  10.9340 -26.3890 18.5570
v  10.9340 -26.3890 -43.2300
v  9.2510 -22.3300 30.8000
v  5.2030 -12.5620 39.6880
v  0.0000 -0.0110 43.2300
v  0.0000 -28.5670 18.5570
v  0.0000 -28.5670 -43.2300
v  0.0000 -24.1670 30.8000
v  0.0000 -13.5960 39.6880
v  -10.9340 -26.3890 18.5570
v  -10.9340 -26.3890 -43.2300
v  -9.2510 -22.3300 30.8000
v  -5.2030 -12.5620 39.6880
v  -20.1960 -20.1960 18.5570
v  -20.1960 -20.1960 -43.2300
v  -17.0940 -17.0940 30.8000
v  -9.6140 -9.6140 39.6880
v  -0.0110 -0.0110 43.2300
v  -26.3890 -10.9340 18.5570
v  -26.3890 -10.9340 -43.2300
v  -22.3300 -9.2510 30.8000
v  -12.5620 -5.2030 39.6880
v  -0.0110 0.0000 43.2300
v  -28.5670 0.0000 18.5570
v  -28.5670 0.0000 -43.2300
v  -24.1670 0.0000 30.8000
v  -13.5960 0.0000 39.6880
v  -26.3890 10.9340 18.5570
v  -26.3890 10.9340 -43.2300
v  -22.3300 9.2510 30.8000
v  -12.5620 5.2030 39.6880
v  -20.1960 20.1960 18.5570
v  -20.1960 20.1960 -43.2300
v  -17.0940 17.0940 30.8000
v  -9.6140 9.6140 39.6880
v  -0.0110 0.0110 43.2300
v  -10.9340 26.3890 18.5570
v  -10.9340 26.3890 -43.2300
v  -9.2510 22.3300 30.8000
v  -5.2030 12.5620 39.6880
v  0.0000 0.0110 43.2300
v  0.0000 28.5670 18.5570
v  0.0000 24.1670 30.8000
v  0.0000 13.5960 39.6880
v  0.0000 28.5670 -43.2300
v  10.9340 26.3890 18.5570
v  10.9340 26.3890 -43.2300
v  9.2510 22.3300 30.8000
v  5.2030 12.5620 39.6880
v  20.1960 20.1960 18.5570
v  20.1960 20.1960 -43.2300
v  17.0940 17.0940 30.8000
v  9.6140 9.6140 39.6880
v  0.0110 0.0110 43.2300
v  26.3890 10.9340 18.5570
v  26.3890 10.9340 -43.2300
v  22.3300 9.2510 30.8000
v  12.5620 5.2030 39.6880
# 72 vertices

vn 1.0000 0.0000 0.0000
vn 0.9858 0.0000 0.1681
vn 0.9107 -0.3772 0.1681
vn 0.9239 -0.3827 0.0000
vn 0.7673 -0.3178 0.5569
vn 0.8305 0.0000 0.5569
vn 0.4435 -0.1837 0.8772
vn 0.4801 0.0000 0.8772
vn 0.2331 -0.0965 0.9676
vn 0.2523 0.0000 0.9676
vn 0.6970 -0.6970 0.1681
vn 0.7071 -0.7071 0.0000
vn 0.5873 -0.5873 0.5569
vn 0.3395 -0.3395 0.8772
vn 0.1784 -0.1784 0.9676
vn 0.3772 -0.9107 0.1681
vn 0.3827 -0.9239 0.0000
vn 0.3178 -0.7673 0.5569
vn 0.1837 -0.4435 0.8772
vn 0.0965 -0.2331 0.9676
vn 0.0000 -0.9858 0.1681
vn 0.0000 -1.0000 0.0000
vn 0.0000 -0.8305 0.5569
vn 0.0000 -0.4801 0.8772
vn 0.0000 -0.2523 0.9676
vn -0.3772 -0.9107 0.1681
vn -0.3827 -0.9239 0.0000
vn -0.3178 -0.7673 0.5569
vn -0.1837 -0.4435 0.8772
vn -0.0965 -0.2331 0.9676
vn -0.6970 -0.6970 0.1681
vn -0.7071 -0.7071 0.0000
vn -0.5873 -0.5873 0.5569
vn -0.3395 -0.3395 0.8772
vn -0.1784 -0.1784 0.9676
vn -0.9107 -0.3772 0.1681
vn -0.9239 -0.3827 0.0000
vn -0.7673 -0.3178 0.5569
vn -0.4435 -0.1837 0.8772
vn -0.2331 -0.0965 0.9676
vn -0.9858 0.0000 0.1681
vn -1.0000 0.0000 0.0000
vn -0.8305 0.0000 0.5569
vn -0.4801 0.0000 0.8772
vn -0.2523 0.0000 0.9676
vn -0.9107 0.3772 0.1681
vn -0.9239 0.3827 0.0000
vn -0.7673 0.3178 0.5569
vn -0.4435 0.1837 0.8772
vn -0.2331 0.0965 0.9676
vn -0.6970 0.6970 0.1681
vn -0.7071 0.7071 0.0000
vn -0.5873 0.5873 0.5569
vn -0.3395 0.3395 0.8772
vn -0.1784 0.1784 0.9676
vn -0.3772 0.9107 0.1681
vn -0.3827 0.9239 0.0000
vn -0.3178 0.7673 0.5569
vn -0.1837 0.4435 0.8772
vn -0.0965 0.2331 0.9676
vn 0.0000 0.9858 0.1681
vn 0.0000 0.8305 0.5569
vn 0.0000 0.4801 0.8772
vn 0.0000 0.2523 0.9676
vn 0.0000 1.0000 0.0000
vn 0.3772 0.9107 0.1681
vn 0.3827 0.9239 0.0000
vn 0.3178 0.7673 0.5569
vn 0.1837 0.4435 0.8772
vn 0.0965 0.2331 0.9676
vn 0.6970 0.6970 0.1681
vn 0.7071 0.7071 0.0000
vn 0.5873 0.5873 0.5569
vn 0.3395 0.3395 0.8772
vn 0.1784 0.1784 0.9676
vn 0.9107 0.3772 0.1681
vn 0.9239 0.3827 0.0000
vn 0.7673 0.3178 0.5569
vn 0.4435 0.1837 0.8772
vn 0.2331 0.0965 0.9676
# 80 vertex normals

vt 0.2500 0.0005 0.0000
vt 0.2500 0.7144 0.0000
vt 0.3125 0.7144 0.0000
vt 0.3125 0.0005 0.0000
vt 0.3125 0.8560 0.0000
vt 0.2500 0.8560 0.0000
vt 0.3125 0.9586 0.0000
vt 0.2500 0.9586 0.0000
vt 0.3126 0.9995 0.0000
vt 0.2501 0.9995 0.0000
vt 0.3750 0.7144 0.0000
vt 0.3750 0.0005 0.0000
vt 0.3750 0.8560 0.0000
vt 0.3750 0.9586 0.0000
vt 0.3751 0.9995 0.0000
vt 0.4375 0.7144 0.0000
vt 0.4375 0.0005 0.0000
vt 0.4375 0.8560 0.0000
vt 0.4375 0.9586 0.0000
vt 0.4376 0.9995 0.0000
vt 0.5000 0.7144 0.0000
vt 0.5000 0.0005 0.0000
vt 0.5000 0.8560 0.0000
vt 0.5000 0.9586 0.0000
vt 0.5001 0.9995 0.0000
vt 0.5625 0.7144 0.0000
vt 0.5625 0.0005 0.0000
vt 0.5625 0.8560 0.0000
vt 0.5625 0.9586 0.0000
vt 0.5626 0.9995 0.0000
vt 0.6250 0.7144 0.0000
vt 0.6250 0.0005 0.0000
vt 0.6250 0.8560 0.0000
vt 0.6250 0.9586 0.0000
vt 0.6251 0.9995 0.0000
vt 0.6875 0.7144 0.0000
vt 0.6875 0.0005 0.0000
vt 0.6875 0.8560 0.0000
vt 0.6875 0.9586 0.0000
vt 0.6875 0.9995 0.0000
vt 0.7500 0.7144 0.0000
vt 0.7500 0.0005 0.0000
vt 0.7500 0.8560 0.0000
vt 0.7500 0.9586 0.0000
vt 0.7499 0.9995 0.0000
vt 0.8125 0.7144 0.0000
vt 0.8125 0.0005 0.0000
vt 0.8125 0.8560 0.0000
vt 0.8125 0.9586 0.0000
vt 0.8124 0.9995 0.0000
vt 0.8750 0.7144 0.0000
vt 0.8750 0.0005 0.0000
vt 0.8750 0.8560 0.0000
vt 0.8750 0.9586 0.0000
vt 0.8748 0.9995 0.0000
vt 0.9375 0.7144 0.0000
vt 0.9375 0.0005 0.0000
vt 0.9375 0.8560 0.0000
vt 0.9375 0.9586 0.0000
vt 0.9374 0.9995 0.0000
vt 1.0000 0.7144 0.0000
vt 1.0000 0.8560 0.0000
vt 1.0000 0.9586 0.0000
vt 0.9999 0.9995 0.0000
vt -0.0625 0.0005 0.0000
vt -0.0000 0.7144 0.0000
vt 0.0000 0.0005 0.0000
vt 0.0625 0.7144 0.0000
vt 0.0625 0.0005 0.0000
vt 0.0625 0.8560 0.0000
vt -0.0000 0.8560 0.0000
vt 0.0625 0.9586 0.0000
vt -0.0000 0.9586 0.0000
vt 0.0624 0.9995 0.0000
vt -0.0001 0.9995 0.0000
vt 0.1250 0.7144 0.0000
vt 0.1250 0.0005 0.0000
vt 0.1250 0.8560 0.0000
vt 0.1250 0.9586 0.0000
vt 0.1250 0.9995 0.0000
vt 0.1875 0.7144 0.0000
vt 0.1875 0.0005 0.0000
vt 0.1875 0.8560 0.0000
vt 0.1875 0.9586 0.0000
vt 0.1875 0.9995 0.0000
# 85 texture coords

g default
usemtl _______________
s 1
f 1/1/1 2/2/2 3/3/3 
f 1/1/1 3/3/3 4/4/4 
f 2/2/2 5/5/5 3/3/3 
f 2/2/2 6/6/6 5/5/5 
f 6/6/6 7/7/7 5/5/5 
f 6/6/6 8/8/8 7/7/7 
f 8/8/8 9/9/9 7/7/7 
f 8/8/8 9/10/10 9/9/9 
f 4/4/4 3/3/3 10/11/11 
f 4/4/4 10/11/11 11/12/12 
f 3/3/3 5/5/5 12/13/13 
f 3/3/3 12/13/13 10/11/11 
f 5/5/5 7/7/7 13/14/14 
f 5/5/5 13/14/14 12/13/13 
f 7/7/7 9/9/9 14/15/15 
f 7/7/7 14/15/15 13/14/14 
f 11/12/12 10/11/11 15/16/16 
f 11/12/12 15/16/16 16/17/17 
f 10/11/11 12/13/13 17/18/18 
f 10/11/11 17/18/18 15/16/16 
f 12/13/13 13/14/14 18/19/19 
f 12/13/13 18/19/19 17/18/18 
f 13/14/14 14/15/15 19/20/20 
f 13/14/14 19/20/20 18/19/19 
f 16/17/17 15/16/16 20/21/21 
f 16/17/17 20/21/21 21/22/22 
f 15/16/16 17/18/18 22/23/23 
f 15/16/16 22/23/23 20/21/21 
f 17/18/18 18/19/19 23/24/24 
f 17/18/18 23/24/24 22/23/23 
f 18/19/19 19/20/20 19/25/25 
f 18/19/19 19/25/25 23/24/24 
f 21/22/22 20/21/21 24/26/26 
f 21/22/22 24/26/26 25/27/27 
f 20/21/21 22/23/23 26/28/28 
f 20/21/21 26/28/28 24/26/26 
f 22/23/23 23/24/24 27/29/29 
f 22/23/23 27/29/29 26/28/28 
f 23/24/24 19/25/25 19/30/30 
f 23/24/24 19/30/30 27/29/29 
f 25/27/27 24/26/26 28/31/31 
f 25/27/27 28/31/31 29/32/32 
f 24/26/26 26/28/28 30/33/33 
f 24/26/26 30/33/33 28/31/31 
f 26/28/28 27/29/29 31/34/34 
f 26/28/28 31/34/34 30/33/33 
f 27/29/29 19/30/30 32/35/35 
f 27/29/29 32/35/35 31/34/34 
f 29/32/32 28/31/31 33/36/36 
f 29/32/32 33/36/36 34/37/37 
f 28/31/31 30/33/33 35/38/38 
f 28/31/31 35/38/38 33/36/36 
f 30/33/33 31/34/34 36/39/39 
f 30/33/33 36/39/39 35/38/38 
f 31/34/34 32/35/35 37/40/40 
f 31/34/34 37/40/40 36/39/39 
f 34/37/37 33/36/36 38/41/41 
f 34/37/37 38/41/41 39/42/42 
f 33/36/36 35/38/38 40/43/43 
f 33/36/36 40/43/43 38/41/41 
f 35/38/38 36/39/39 41/44/44 
f 35/38/38 41/44/44 40/43/43 
f 36/39/39 37/40/40 37/45/45 
f 36/39/39 37/45/45 41/44/44 
f 39/42/42 38/41/41 42/46/46 
f 39/42/42 42/46/46 43/47/47 
f 38/41/41 40/43/43 44/48/48 
f 38/41/41 44/48/48 42/46/46 
f 40/43/43 41/44/44 45/49/49 
f 40/43/43 45/49/49 44/48/48 
f 41/44/44 37/45/45 37/50/50 
f 41/44/44 37/50/50 45/49/49 
f 43/47/47 42/46/46 46/51/51 
f 43/47/47 46/51/51 47/52/52 
f 42/46/46 44/48/48 48/53/53 
f 42/46/46 48/53/53 46/51/51 
f 44/48/48 45/49/49 49/54/54 
f 44/48/48 49/54/54 48/53/53 
f 45/49/49 37/50/50 50/55/55 
f 45/49/49 50/55/55 49/54/54 
f 47/52/52 46/51/51 51/56/56 
f 47/52/52 51/56/56 52/57/57 
f 46/51/51 48/53/53 53/58/58 
f 46/51/51 53/58/58 51/56/56 
f 48/53/53 49/54/54 54/59/59 
f 48/53/53 54/59/59 53/58/58 
f 49/54/54 50/55/55 55/60/60 
f 49/54/54 55/60/60 54/59/59 
f 52/57/57 51/56/56 56/61/61 
f 51/56/56 53/58/58 57/62/62 
f 51/56/56 57/62/62 56/61/61 
f 53/58/58 54/59/59 58/63/63 
f 53/58/58 58/63/63 57/62/62 
f 54/59/59 55/60/60 55/64/64 
f 54/59/59 55/64/64 58/63/63 
f 52/65/57 56/66/61 59/67/65 
f 59/67/65 56/66/61 60/68/66 
f 59/67/65 60/68/66 61/69/67 
f 56/66/61 62/70/68 60/68/66 
f 56/66/61 57/71/62 62/70/68 
f 57/71/62 63/72/69 62/70/68 
f 57/71/62 58/73/63 63/72/69 
f 58/73/63 55/74/70 63/72/69 
f 58/73/63 55/75/64 55/74/70 
f 61/69/67 60/68/66 64/76/71 
f 61/69/67 64/76/71 65/77/72 
f 60/68/66 62/70/68 66/78/73 
f 60/68/66 66/78/73 64/76/71 
f 62/70/68 63/72/69 67/79/74 
f 62/70/68 67/79/74 66/78/73 
f 63/72/69 55/74/70 68/80/75 
f 63/72/69 68/80/75 67/79/74 
f 65/77/72 64/76/71 69/81/76 
f 65/77/72 69/81/76 70/82/77 
f 64/76/71 66/78/73 71/83/78 
f 64/76/71 71/83/78 69/81/76 
f 66/78/73 67/79/74 72/84/79 
f 66/78/73 72/84/79 71/83/78 
f 67/79/74 68/80/75 9/85/80 
f 67/79/74 9/85/80 72/84/79 
f 70/82/77 69/81/76 2/2/2 
f 70/82/77 2/2/2 1/1/1 
f 69/81/76 71/83/78 6/6/6 
f 69/81/76 6/6/6 2/2/2 
f 71/83/78 72/84/79 8/8/8 
f 71/83/78 8/8/8 6/6/6 
f 72/84/79 9/85/80 9/10/10 
f 72/84/79 9/10/10 8/8/8 
# 128 faces

