# 3ds Max Wavefront OBJ Exporter v0.97b - (c)2007 guruware
# 创建的文件:12.11.2015 17:33:07

mtllib SpiritLamp.mtl

#
# object default
#

v  19.8880 0.0000 168.8390
v  24.3540 -8.8660 150.7220
v  25.9160 0.0000 150.7220
v  18.6890 -6.7980 168.8390
v  46.2440 -16.8300 137.0820
v  49.2030 0.0000 137.0820
v  100.0340 -36.4100 106.7220
v  106.4580 0.0000 106.7220
v  103.7740 -37.7630 96.1620
v  110.4290 0.0000 96.1620
v  100.1220 -36.4320 85.9980
v  106.5460 0.0000 85.9980
v  76.1530 -27.7090 58.1570
v  81.0370 0.0000 58.1570
v  49.8850 -18.1500 7.7220
v  53.0860 0.0000 7.7220
v  19.8550 -16.6540 150.7220
v  15.2350 -12.7820 168.8390
v  81.5540 -68.4200 106.7220
v  37.6970 -31.6250 137.0820
v  84.6010 -70.9830 96.1620
v  81.6200 -68.4750 85.9980
v  62.0730 -52.0850 58.1570
v  40.6670 -34.1220 7.7220
v  12.9690 -22.4400 150.7220
v  9.9550 -17.2150 168.8390
v  24.6070 -42.6030 137.0820
v  53.2290 -92.1910 106.7220
v  55.2200 -95.6230 96.1620
v  53.2730 -92.2570 85.9980
v  40.5240 -70.1690 58.1570
v  26.5540 -45.9690 7.7220
v  4.5100 -25.5200 150.7220
v  3.4650 -19.5800 168.8390
v  8.5580 -48.4440 137.0820
v  18.4910 -104.8300 106.7220
v  19.1840 -108.7460 96.1620
v  18.5130 -104.9180 85.9980
v  14.0800 -79.7940 58.1570
v  9.2290 -52.2720 7.7220
v  -4.4880 -25.5200 150.7220
v  -3.4430 -19.5800 168.8390
v  -8.5360 -48.4440 137.0820
v  -18.4690 -104.8300 106.7220
v  -19.1620 -108.7460 96.1620
v  -18.4910 -104.9180 85.9980
v  -14.0580 -79.7940 58.1570
v  -9.2070 -52.2720 7.7220
v  -12.9470 -22.4400 150.7220
v  -9.9330 -17.2150 168.8390
v  -24.5850 -42.6030 137.0820
v  -53.2070 -92.1910 106.7220
v  -55.1980 -95.6230 96.1620
v  -53.2510 -92.2570 85.9980
v  -40.5020 -70.1690 58.1570
v  -26.5320 -45.9690 7.7220
v  -19.8330 -16.6540 150.7220
v  -15.2130 -12.7820 168.8390
v  -37.6750 -31.6250 137.0820
v  -81.5320 -68.4200 106.7220
v  -84.5790 -70.9830 96.1620
v  -81.5980 -68.4750 85.9980
v  -62.0510 -52.0850 58.1570
v  -40.6450 -34.1220 7.7220
v  -24.3320 -8.8660 150.7220
v  -18.6670 -6.7980 168.8390
v  -46.2220 -16.8300 137.0820
v  -100.0120 -36.4100 106.7220
v  -103.7520 -37.7630 96.1620
v  -100.1000 -36.4320 85.9980
v  -76.1310 -27.7090 58.1570
v  -49.8630 -18.1500 7.7220
v  -25.8940 0.0000 150.7220
v  -19.8660 0.0000 168.8390
v  -49.1810 0.0000 137.0820
v  -106.4360 0.0000 106.7220
v  -110.4070 0.0000 96.1620
v  -106.5240 0.0000 85.9980
v  -81.0150 0.0000 58.1570
v  -53.0640 0.0000 7.7220
v  49.8850 -18.1500 0.0110
v  53.0860 0.0000 0.0110
v  40.6670 -34.1220 0.0110
v  26.5540 -45.9690 0.0110
v  9.2290 -52.2720 0.0110
v  -9.2070 -52.2720 0.0110
v  -26.5320 -45.9690 0.0110
v  -40.6450 -34.1220 0.0110
v  -49.8630 -18.1500 0.0110
v  -53.0640 0.0000 0.0110
v  0.0110 0.0000 0.0110
v  -49.8630 18.1500 0.0110
v  -40.6450 34.1220 0.0110
v  -26.5320 45.9690 0.0110
v  -9.2070 52.2720 0.0110
v  9.2290 52.2720 0.0110
v  26.5540 45.9690 0.0110
v  40.6670 34.1220 0.0110
v  49.8850 18.1500 0.0110
v  -24.3320 8.8660 150.7220
v  -18.6670 6.7980 168.8390
v  -46.2220 16.8300 137.0820
v  -100.0120 36.4100 106.7220
v  -103.7520 37.7630 96.1620
v  -100.1000 36.4320 85.9980
v  -76.1310 27.7090 58.1570
v  -49.8630 18.1500 7.7220
v  -19.8330 16.6540 150.7220
v  -15.2130 12.7820 168.8390
v  -81.5320 68.4200 106.7220
v  -37.6750 31.6250 137.0820
v  -84.5790 70.9830 96.1620
v  -81.5980 68.4750 85.9980
v  -62.0510 52.0850 58.1570
v  -40.6450 34.1220 7.7220
v  -12.9470 22.4400 150.7220
v  -9.9330 17.2150 168.8390
v  -24.5850 42.6030 137.0820
v  -53.2070 92.1910 106.7220
v  -55.1980 95.6230 96.1620
v  -53.2510 92.2570 85.9980
v  -40.5020 70.1690 58.1570
v  -26.5320 45.9690 7.7220
v  -4.4880 25.5200 150.7220
v  -3.4430 19.5800 168.8390
v  -8.5360 48.4440 137.0820
v  -18.4690 104.8300 106.7220
v  -19.1620 108.7460 96.1620
v  -18.4910 104.9180 85.9980
v  -14.0580 79.7940 58.1570
v  -9.2070 52.2720 7.7220
v  4.5100 25.5200 150.7220
v  3.4650 19.5800 168.8390
v  8.5580 48.4440 137.0820
v  18.4910 104.8300 106.7220
v  19.1840 108.7460 96.1620
v  18.5130 104.9180 85.9980
v  14.0800 79.7940 58.1570
v  9.2290 52.2720 7.7220
v  12.9690 22.4400 150.7220
v  9.9550 17.2150 168.8390
v  24.6070 42.6030 137.0820
v  53.2290 92.1910 106.7220
v  55.2200 95.6230 96.1620
v  53.2730 92.2570 85.9980
v  40.5240 70.1690 58.1570
v  26.5540 45.9690 7.7220
v  19.8550 16.6540 150.7220
v  15.2350 12.7820 168.8390
v  37.6970 31.6250 137.0820
v  81.5540 68.4200 106.7220
v  84.6010 70.9830 96.1620
v  81.6200 68.4750 85.9980
v  62.0730 52.0850 58.1570
v  40.6670 34.1220 7.7220
v  24.3540 8.8660 150.7220
v  18.6890 6.7980 168.8390
v  46.2440 16.8300 137.0820
v  100.0340 36.4100 106.7220
v  103.7740 37.7630 96.1620
v  100.1220 36.4320 85.9980
v  76.1530 27.7090 58.1570
v  49.8850 18.1500 7.7220
v  0.0110 0.0000 5.6540
v  47.0690 -17.1270 5.6540
v  50.0830 0.0000 5.6540
v  38.3680 -32.1860 5.6540
v  25.0470 -43.3620 5.6540
v  8.7010 -49.3130 5.6540
v  -8.6790 -49.3130 5.6540
v  -25.0250 -43.3620 5.6540
v  -38.3460 -32.1860 5.6540
v  -47.0470 -17.1270 5.6540
v  -50.0610 0.0000 5.6540
v  -47.0470 17.1270 5.6540
v  -38.3460 32.1860 5.6540
v  -25.0250 43.3620 5.6540
v  -8.6790 49.3130 5.6540
v  8.7010 49.3130 5.6540
v  25.0470 43.3620 5.6540
v  38.3680 32.1860 5.6540
v  47.0690 17.1270 5.6540
# 182 vertices

vn 0.9489 0.0000 0.3156
vn 0.7146 -0.2601 0.6493
vn 0.7605 0.0000 0.6493
vn 0.8917 -0.3245 0.3156
vn 0.4560 -0.1660 0.8744
vn 0.4853 0.0000 0.8744
vn 0.7206 -0.2623 0.6419
vn 0.7668 0.0000 0.6419
vn 0.9397 -0.3420 -0.0024
vn 1.0000 0.0000 -0.0024
vn 0.8046 -0.2928 -0.5167
vn 0.8562 0.0000 -0.5167
vn 0.7584 -0.2760 -0.5904
vn 0.8071 0.0000 -0.5904
vn 0.8220 -0.2992 -0.4846
vn 0.8747 0.0000 -0.4846
vn 0.5826 -0.4888 0.6493
vn 0.7269 -0.6099 0.3156
vn 0.5874 -0.4929 0.6419
vn 0.3717 -0.3119 0.8744
vn 0.7660 -0.6428 -0.0024
vn 0.6559 -0.5503 -0.5167
vn 0.6183 -0.5188 -0.5904
vn 0.6701 -0.5623 -0.4846
vn 0.3803 -0.6586 0.6493
vn 0.4744 -0.8218 0.3156
vn 0.2426 -0.4203 0.8744
vn 0.3834 -0.6641 0.6419
vn 0.5000 -0.8660 -0.0024
vn 0.4281 -0.7415 -0.5167
vn 0.4035 -0.6990 -0.5904
vn 0.4374 -0.7576 -0.4846
vn 0.1321 -0.7489 0.6493
vn 0.1648 -0.9345 0.3156
vn 0.0843 -0.4779 0.8744
vn 0.1332 -0.7551 0.6419
vn 0.1736 -0.9848 -0.0024
vn 0.1487 -0.8432 -0.5167
vn 0.1401 -0.7948 -0.5904
vn 0.1519 -0.8615 -0.4846
vn -0.1321 -0.7489 0.6493
vn -0.1648 -0.9345 0.3156
vn -0.0843 -0.4779 0.8744
vn -0.1332 -0.7551 0.6419
vn -0.1736 -0.9848 -0.0024
vn -0.1487 -0.8432 -0.5167
vn -0.1402 -0.7948 -0.5904
vn -0.1519 -0.8615 -0.4846
vn -0.3803 -0.6586 0.6493
vn -0.4744 -0.8218 0.3156
vn -0.2426 -0.4203 0.8744
vn -0.3834 -0.6641 0.6419
vn -0.5000 -0.8660 -0.0024
vn -0.4281 -0.7415 -0.5167
vn -0.4035 -0.6990 -0.5904
vn -0.4374 -0.7576 -0.4846
vn -0.5826 -0.4888 0.6493
vn -0.7269 -0.6099 0.3156
vn -0.3717 -0.3119 0.8744
vn -0.5874 -0.4929 0.6419
vn -0.7660 -0.6428 -0.0024
vn -0.6559 -0.5503 -0.5167
vn -0.6183 -0.5188 -0.5904
vn -0.6701 -0.5623 -0.4846
vn -0.7146 -0.2601 0.6493
vn -0.8917 -0.3245 0.3156
vn -0.4560 -0.1660 0.8744
vn -0.7206 -0.2623 0.6419
vn -0.9397 -0.3420 -0.0024
vn -0.8046 -0.2928 -0.5167
vn -0.7584 -0.2760 -0.5904
vn -0.8220 -0.2992 -0.4846
vn -0.7605 0.0000 0.6493
vn -0.9489 0.0000 0.3156
vn -0.4853 0.0000 0.8744
vn -0.7668 0.0000 0.6419
vn -1.0000 0.0000 -0.0024
vn -0.8562 0.0000 -0.5167
vn -0.8071 0.0000 -0.5904
vn -0.8747 0.0000 -0.4846
vn 1.0000 0.0000 0.0000
vn 0.9397 -0.3420 0.0000
vn 0.7660 -0.6428 0.0000
vn 0.5000 -0.8660 0.0000
vn 0.1736 -0.9848 0.0000
vn -0.1736 -0.9848 0.0000
vn -0.5000 -0.8660 0.0000
vn -0.7660 -0.6428 0.0000
vn -0.9397 -0.3420 0.0000
vn -1.0000 0.0000 0.0000
vn 0.0000 0.0000 -1.0000
vn -0.7146 0.2601 0.6493
vn -0.8917 0.3245 0.3156
vn -0.4560 0.1660 0.8744
vn -0.7206 0.2623 0.6419
vn -0.9397 0.3420 -0.0024
vn -0.8046 0.2928 -0.5167
vn -0.7584 0.2760 -0.5904
vn -0.8220 0.2992 -0.4846
vn -0.5826 0.4888 0.6493
vn -0.7269 0.6099 0.3156
vn -0.5874 0.4929 0.6419
vn -0.3717 0.3119 0.8744
vn -0.7660 0.6428 -0.0024
vn -0.6559 0.5503 -0.5167
vn -0.6183 0.5188 -0.5904
vn -0.6701 0.5623 -0.4846
vn -0.3803 0.6586 0.6493
vn -0.4744 0.8218 0.3156
vn -0.2426 0.4203 0.8744
vn -0.3834 0.6641 0.6419
vn -0.5000 0.8660 -0.0024
vn -0.4281 0.7415 -0.5167
vn -0.4035 0.6990 -0.5904
vn -0.4374 0.7576 -0.4846
vn -0.1321 0.7489 0.6493
vn -0.1648 0.9345 0.3156
vn -0.0843 0.4779 0.8744
vn -0.1332 0.7551 0.6419
vn -0.1736 0.9848 -0.0024
vn -0.1487 0.8432 -0.5167
vn -0.1401 0.7948 -0.5904
vn -0.1519 0.8615 -0.4846
vn 0.1321 0.7489 0.6493
vn 0.1648 0.9345 0.3156
vn 0.0843 0.4779 0.8744
vn 0.1332 0.7551 0.6419
vn 0.1736 0.9848 -0.0024
vn 0.1487 0.8432 -0.5167
vn 0.1402 0.7948 -0.5904
vn 0.1519 0.8615 -0.4846
vn 0.3803 0.6586 0.6493
vn 0.4744 0.8218 0.3156
vn 0.2426 0.4203 0.8744
vn 0.3834 0.6641 0.6419
vn 0.5000 0.8660 -0.0024
vn 0.4281 0.7415 -0.5167
vn 0.4035 0.6990 -0.5904
vn 0.4374 0.7576 -0.4846
vn 0.5826 0.4888 0.6493
vn 0.7269 0.6099 0.3156
vn 0.3717 0.3119 0.8744
vn 0.5874 0.4929 0.6419
vn 0.7660 0.6428 -0.0024
vn 0.6559 0.5503 -0.5167
vn 0.6183 0.5188 -0.5904
vn 0.6701 0.5623 -0.4846
vn 0.7146 0.2601 0.6493
vn 0.8917 0.3245 0.3156
vn 0.4560 0.1660 0.8744
vn 0.7206 0.2623 0.6419
vn 0.9397 0.3420 -0.0024
vn 0.8046 0.2928 -0.5167
vn 0.7584 0.2760 -0.5904
vn 0.8220 0.2992 -0.4846
vn -0.9397 0.3420 0.0000
vn -0.7660 0.6428 0.0000
vn -0.5000 0.8660 0.0000
vn -0.1736 0.9848 0.0000
vn 0.1736 0.9848 0.0000
vn 0.5000 0.8660 0.0000
vn 0.7660 0.6428 0.0000
vn 0.9397 0.3420 0.0000
vn 0.0000 0.0000 1.0000
# 164 vertex normals

vt 0.4101 0.9995 0.0000
vt 0.3899 0.8923 0.0000
vt 0.3828 0.8923 0.0000
vt 0.4155 0.9995 0.0000
vt 0.2909 0.8115 0.0000
vt 0.2775 0.8115 0.0000
vt 0.0475 0.6319 0.0000
vt 0.0185 0.6319 0.0000
vt 0.0306 0.5695 0.0000
vt 0.0005 0.5695 0.0000
vt 0.0472 0.5093 0.0000
vt 0.0181 0.5093 0.0000
vt 0.1556 0.3446 0.0000
vt 0.1335 0.3446 0.0000
vt 0.2744 0.0461 0.0000
vt 0.2599 0.0461 0.0000
vt 0.4102 0.8923 0.0000
vt 0.4311 0.9995 0.0000
vt 0.1311 0.6319 0.0000
vt 0.3295 0.8115 0.0000
vt 0.1174 0.5695 0.0000
vt 0.1308 0.5093 0.0000
vt 0.2192 0.3446 0.0000
vt 0.3161 0.0461 0.0000
vt 0.4414 0.8923 0.0000
vt 0.4550 0.9995 0.0000
vt 0.3887 0.8115 0.0000
vt 0.2592 0.6319 0.0000
vt 0.2502 0.5695 0.0000
vt 0.2590 0.5093 0.0000
vt 0.3167 0.3446 0.0000
vt 0.3799 0.0461 0.0000
vt 0.4796 0.8923 0.0000
vt 0.4844 0.9995 0.0000
vt 0.4614 0.8115 0.0000
vt 0.4164 0.6319 0.0000
vt 0.4133 0.5695 0.0000
vt 0.4163 0.5093 0.0000
vt 0.4364 0.3446 0.0000
vt 0.4583 0.0461 0.0000
vt 0.5204 0.8923 0.0000
vt 0.5156 0.9995 0.0000
vt 0.5386 0.8115 0.0000
vt 0.5836 0.6319 0.0000
vt 0.5867 0.5695 0.0000
vt 0.5837 0.5093 0.0000
vt 0.5636 0.3446 0.0000
vt 0.5417 0.0461 0.0000
vt 0.5586 0.8923 0.0000
vt 0.5450 0.9995 0.0000
vt 0.6113 0.8115 0.0000
vt 0.7408 0.6319 0.0000
vt 0.7498 0.5695 0.0000
vt 0.7410 0.5093 0.0000
vt 0.6833 0.3446 0.0000
vt 0.6201 0.0461 0.0000
vt 0.5898 0.8923 0.0000
vt 0.5689 0.9995 0.0000
vt 0.6705 0.8115 0.0000
vt 0.8689 0.6319 0.0000
vt 0.8826 0.5695 0.0000
vt 0.8692 0.5093 0.0000
vt 0.7808 0.3446 0.0000
vt 0.6839 0.0461 0.0000
vt 0.6101 0.8923 0.0000
vt 0.5845 0.9995 0.0000
vt 0.7091 0.8115 0.0000
vt 0.9525 0.6319 0.0000
vt 0.9694 0.5695 0.0000
vt 0.9528 0.5093 0.0000
vt 0.8444 0.3446 0.0000
vt 0.7256 0.0461 0.0000
vt 0.6172 0.8923 0.0000
vt 0.5899 0.9995 0.0000
vt 0.7225 0.8115 0.0000
vt 0.9815 0.6319 0.0000
vt 0.9995 0.5695 0.0000
vt 0.9819 0.5093 0.0000
vt 0.8665 0.3446 0.0000
vt 0.7401 0.0461 0.0000
vt 0.2744 0.0005 0.0000
vt 0.2599 0.0005 0.0000
vt 0.3161 0.0005 0.0000
vt 0.3799 0.0005 0.0000
vt 0.4583 0.0005 0.0000
vt 0.5417 0.0005 0.0000
vt 0.6201 0.0005 0.0000
vt 0.6839 0.0005 0.0000
vt 0.7256 0.0005 0.0000
vt 0.7401 0.0005 0.0000
vt 0.5000 0.0005 0.0000
vt 0.5000 0.0339 0.0000
vt 0.2871 0.0339 0.0000
vt 0.2735 0.0339 0.0000
vt 0.3265 0.0339 0.0000
vt 0.3867 0.0339 0.0000
vt 0.4607 0.0339 0.0000
vt 0.5393 0.0339 0.0000
vt 0.6133 0.0339 0.0000
vt 0.6735 0.0339 0.0000
vt 0.7129 0.0339 0.0000
vt 0.7265 0.0339 0.0000
# 102 texture coords

g default
usemtl _______________
s 1
f 1/1/1 2/2/2 3/3/3 
f 1/1/1 4/4/4 2/2/2 
f 3/3/3 2/2/2 5/5/5 
f 3/3/3 5/5/5 6/6/6 
f 6/6/6 5/5/5 7/7/7 
f 6/6/6 7/7/7 8/8/8 
f 8/8/8 7/7/7 9/9/9 
f 8/8/8 9/9/9 10/10/10 
f 10/10/10 9/9/9 11/11/11 
f 10/10/10 11/11/11 12/12/12 
f 12/12/12 11/11/11 13/13/13 
f 12/12/12 13/13/13 14/14/14 
f 14/14/14 13/13/13 15/15/15 
f 14/14/14 15/15/15 16/16/16 
f 4/4/4 17/17/17 2/2/2 
f 4/4/4 18/18/18 17/17/17 
f 5/5/5 19/19/19 7/7/7 
f 5/5/5 20/20/20 19/19/19 
f 2/2/2 20/20/20 5/5/5 
f 2/2/2 17/17/17 20/20/20 
f 7/7/7 21/21/21 9/9/9 
f 7/7/7 19/19/19 21/21/21 
f 9/9/9 22/22/22 11/11/11 
f 9/9/9 21/21/21 22/22/22 
f 11/11/11 23/23/23 13/13/13 
f 11/11/11 22/22/22 23/23/23 
f 13/13/13 24/24/24 15/15/15 
f 13/13/13 23/23/23 24/24/24 
f 18/18/18 25/25/25 17/17/17 
f 18/18/18 26/26/26 25/25/25 
f 17/17/17 27/27/27 20/20/20 
f 17/17/17 25/25/25 27/27/27 
f 20/20/20 28/28/28 19/19/19 
f 20/20/20 27/27/27 28/28/28 
f 19/19/19 29/29/29 21/21/21 
f 19/19/19 28/28/28 29/29/29 
f 21/21/21 30/30/30 22/22/22 
f 21/21/21 29/29/29 30/30/30 
f 22/22/22 31/31/31 23/23/23 
f 22/22/22 30/30/30 31/31/31 
f 23/23/23 32/32/32 24/24/24 
f 23/23/23 31/31/31 32/32/32 
f 26/26/26 33/33/33 25/25/25 
f 26/26/26 34/34/34 33/33/33 
f 25/25/25 35/35/35 27/27/27 
f 25/25/25 33/33/33 35/35/35 
f 27/27/27 36/36/36 28/28/28 
f 27/27/27 35/35/35 36/36/36 
f 28/28/28 37/37/37 29/29/29 
f 28/28/28 36/36/36 37/37/37 
f 29/29/29 38/38/38 30/30/30 
f 29/29/29 37/37/37 38/38/38 
f 30/30/30 39/39/39 31/31/31 
f 30/30/30 38/38/38 39/39/39 
f 31/31/31 40/40/40 32/32/32 
f 31/31/31 39/39/39 40/40/40 
f 34/34/34 41/41/41 33/33/33 
f 34/34/34 42/42/42 41/41/41 
f 33/33/33 43/43/43 35/35/35 
f 33/33/33 41/41/41 43/43/43 
f 35/35/35 44/44/44 36/36/36 
f 35/35/35 43/43/43 44/44/44 
f 36/36/36 45/45/45 37/37/37 
f 36/36/36 44/44/44 45/45/45 
f 37/37/37 46/46/46 38/38/38 
f 37/37/37 45/45/45 46/46/46 
f 38/38/38 47/47/47 39/39/39 
f 38/38/38 46/46/46 47/47/47 
f 39/39/39 48/48/48 40/40/40 
f 39/39/39 47/47/47 48/48/48 
f 42/42/42 49/49/49 41/41/41 
f 42/42/42 50/50/50 49/49/49 
f 41/41/41 51/51/51 43/43/43 
f 41/41/41 49/49/49 51/51/51 
f 43/43/43 52/52/52 44/44/44 
f 43/43/43 51/51/51 52/52/52 
f 44/44/44 53/53/53 45/45/45 
f 44/44/44 52/52/52 53/53/53 
f 45/45/45 54/54/54 46/46/46 
f 45/45/45 53/53/53 54/54/54 
f 46/46/46 55/55/55 47/47/47 
f 46/46/46 54/54/54 55/55/55 
f 47/47/47 56/56/56 48/48/48 
f 47/47/47 55/55/55 56/56/56 
f 50/50/50 57/57/57 49/49/49 
f 50/50/50 58/58/58 57/57/57 
f 49/49/49 59/59/59 51/51/51 
f 49/49/49 57/57/57 59/59/59 
f 51/51/51 60/60/60 52/52/52 
f 51/51/51 59/59/59 60/60/60 
f 52/52/52 61/61/61 53/53/53 
f 52/52/52 60/60/60 61/61/61 
f 53/53/53 62/62/62 54/54/54 
f 53/53/53 61/61/61 62/62/62 
f 54/54/54 63/63/63 55/55/55 
f 54/54/54 62/62/62 63/63/63 
f 55/55/55 64/64/64 56/56/56 
f 55/55/55 63/63/63 64/64/64 
f 58/58/58 65/65/65 57/57/57 
f 58/58/58 66/66/66 65/65/65 
f 57/57/57 67/67/67 59/59/59 
f 57/57/57 65/65/65 67/67/67 
f 59/59/59 68/68/68 60/60/60 
f 59/59/59 67/67/67 68/68/68 
f 60/60/60 69/69/69 61/61/61 
f 60/60/60 68/68/68 69/69/69 
f 61/61/61 70/70/70 62/62/62 
f 61/61/61 69/69/69 70/70/70 
f 62/62/62 71/71/71 63/63/63 
f 62/62/62 70/70/70 71/71/71 
f 63/63/63 72/72/72 64/64/64 
f 63/63/63 71/71/71 72/72/72 
f 66/66/66 73/73/73 65/65/65 
f 66/66/66 74/74/74 73/73/73 
f 65/65/65 75/75/75 67/67/67 
f 65/65/65 73/73/73 75/75/75 
f 67/67/67 76/76/76 68/68/68 
f 67/67/67 75/75/75 76/76/76 
f 68/68/68 77/77/77 69/69/69 
f 68/68/68 76/76/76 77/77/77 
f 69/69/69 78/78/78 70/70/70 
f 69/69/69 77/77/77 78/78/78 
f 70/70/70 79/79/79 71/71/71 
f 70/70/70 78/78/78 79/79/79 
f 71/71/71 80/80/80 72/72/72 
f 71/71/71 79/79/79 80/80/80 
f 16/16/81 81/81/82 82/82/81 
f 16/16/81 15/15/82 81/81/82 
f 15/15/82 83/83/83 81/81/82 
f 15/15/82 24/24/83 83/83/83 
f 24/24/83 84/84/84 83/83/83 
f 24/24/83 32/32/84 84/84/84 
f 32/32/84 85/85/85 84/84/84 
f 32/32/84 40/40/85 85/85/85 
f 40/40/85 86/86/86 85/85/85 
f 40/40/85 48/48/86 86/86/86 
f 48/48/86 87/87/87 86/86/86 
f 48/48/86 56/56/87 87/87/87 
f 56/56/87 88/88/88 87/87/87 
f 56/56/87 64/64/88 88/88/88 
f 64/64/88 89/89/89 88/88/88 
f 64/64/88 72/72/89 89/89/89 
f 72/72/89 90/90/90 89/89/89 
f 72/72/89 80/80/90 90/90/90 
f 82/82/91 81/81/91 91/91/91 
f 81/81/91 83/83/91 91/91/91 
f 83/83/91 84/84/91 91/91/91 
f 84/84/91 85/85/91 91/91/91 
f 85/85/91 86/86/91 91/91/91 
f 86/86/91 87/87/91 91/91/91 
f 87/87/91 88/88/91 91/91/91 
f 88/88/91 89/89/91 91/91/91 
f 89/89/91 90/90/91 91/91/91 
f 90/90/91 92/89/91 91/91/91 
f 92/89/91 93/88/91 91/91/91 
f 93/88/91 94/87/91 91/91/91 
f 94/87/91 95/86/91 91/91/91 
f 95/86/91 96/85/91 91/91/91 
f 96/85/91 97/84/91 91/91/91 
f 97/84/91 98/83/91 91/91/91 
f 98/83/91 99/81/91 91/91/91 
f 99/81/91 82/82/91 91/91/91 
f 74/74/74 100/65/92 73/73/73 
f 74/74/74 101/66/93 100/65/92 
f 73/73/73 100/65/92 102/67/94 
f 73/73/73 102/67/94 75/75/75 
f 75/75/75 102/67/94 103/68/95 
f 75/75/75 103/68/95 76/76/76 
f 76/76/76 103/68/95 104/69/96 
f 76/76/76 104/69/96 77/77/77 
f 77/77/77 104/69/96 105/70/97 
f 77/77/77 105/70/97 78/78/78 
f 78/78/78 105/70/97 106/71/98 
f 78/78/78 106/71/98 79/79/79 
f 79/79/79 106/71/98 107/72/99 
f 79/79/79 107/72/99 80/80/80 
f 101/66/93 108/57/100 100/65/92 
f 101/66/93 109/58/101 108/57/100 
f 102/67/94 110/60/102 103/68/95 
f 102/67/94 111/59/103 110/60/102 
f 100/65/92 111/59/103 102/67/94 
f 100/65/92 108/57/100 111/59/103 
f 103/68/95 112/61/104 104/69/96 
f 103/68/95 110/60/102 112/61/104 
f 104/69/96 113/62/105 105/70/97 
f 104/69/96 112/61/104 113/62/105 
f 105/70/97 114/63/106 106/71/98 
f 105/70/97 113/62/105 114/63/106 
f 106/71/98 115/64/107 107/72/99 
f 106/71/98 114/63/106 115/64/107 
f 109/58/101 116/49/108 108/57/100 
f 109/58/101 117/50/109 116/49/108 
f 108/57/100 118/51/110 111/59/103 
f 108/57/100 116/49/108 118/51/110 
f 111/59/103 119/52/111 110/60/102 
f 111/59/103 118/51/110 119/52/111 
f 110/60/102 120/53/112 112/61/104 
f 110/60/102 119/52/111 120/53/112 
f 112/61/104 121/54/113 113/62/105 
f 112/61/104 120/53/112 121/54/113 
f 113/62/105 122/55/114 114/63/106 
f 113/62/105 121/54/113 122/55/114 
f 114/63/106 123/56/115 115/64/107 
f 114/63/106 122/55/114 123/56/115 
f 117/50/109 124/41/116 116/49/108 
f 117/50/109 125/42/117 124/41/116 
f 116/49/108 126/43/118 118/51/110 
f 116/49/108 124/41/116 126/43/118 
f 118/51/110 127/44/119 119/52/111 
f 118/51/110 126/43/118 127/44/119 
f 119/52/111 128/45/120 120/53/112 
f 119/52/111 127/44/119 128/45/120 
f 120/53/112 129/46/121 121/54/113 
f 120/53/112 128/45/120 129/46/121 
f 121/54/113 130/47/122 122/55/114 
f 121/54/113 129/46/121 130/47/122 
f 122/55/114 131/48/123 123/56/115 
f 122/55/114 130/47/122 131/48/123 
f 125/42/117 132/33/124 124/41/116 
f 125/42/117 133/34/125 132/33/124 
f 124/41/116 134/35/126 126/43/118 
f 124/41/116 132/33/124 134/35/126 
f 126/43/118 135/36/127 127/44/119 
f 126/43/118 134/35/126 135/36/127 
f 127/44/119 136/37/128 128/45/120 
f 127/44/119 135/36/127 136/37/128 
f 128/45/120 137/38/129 129/46/121 
f 128/45/120 136/37/128 137/38/129 
f 129/46/121 138/39/130 130/47/122 
f 129/46/121 137/38/129 138/39/130 
f 130/47/122 139/40/131 131/48/123 
f 130/47/122 138/39/130 139/40/131 
f 133/34/125 140/25/132 132/33/124 
f 133/34/125 141/26/133 140/25/132 
f 132/33/124 142/27/134 134/35/126 
f 132/33/124 140/25/132 142/27/134 
f 134/35/126 143/28/135 135/36/127 
f 134/35/126 142/27/134 143/28/135 
f 135/36/127 144/29/136 136/37/128 
f 135/36/127 143/28/135 144/29/136 
f 136/37/128 145/30/137 137/38/129 
f 136/37/128 144/29/136 145/30/137 
f 137/38/129 146/31/138 138/39/130 
f 137/38/129 145/30/137 146/31/138 
f 138/39/130 147/32/139 139/40/131 
f 138/39/130 146/31/138 147/32/139 
f 141/26/133 148/17/140 140/25/132 
f 141/26/133 149/18/141 148/17/140 
f 140/25/132 150/20/142 142/27/134 
f 140/25/132 148/17/140 150/20/142 
f 142/27/134 151/19/143 143/28/135 
f 142/27/134 150/20/142 151/19/143 
f 143/28/135 152/21/144 144/29/136 
f 143/28/135 151/19/143 152/21/144 
f 144/29/136 153/22/145 145/30/137 
f 144/29/136 152/21/144 153/22/145 
f 145/30/137 154/23/146 146/31/138 
f 145/30/137 153/22/145 154/23/146 
f 146/31/138 155/24/147 147/32/139 
f 146/31/138 154/23/146 155/24/147 
f 149/18/141 156/2/148 148/17/140 
f 149/18/141 157/4/149 156/2/148 
f 148/17/140 158/5/150 150/20/142 
f 148/17/140 156/2/148 158/5/150 
f 150/20/142 159/7/151 151/19/143 
f 150/20/142 158/5/150 159/7/151 
f 151/19/143 160/9/152 152/21/144 
f 151/19/143 159/7/151 160/9/152 
f 152/21/144 161/11/153 153/22/145 
f 152/21/144 160/9/152 161/11/153 
f 153/22/145 162/13/154 154/23/146 
f 153/22/145 161/11/153 162/13/154 
f 154/23/146 163/15/155 155/24/147 
f 154/23/146 162/13/154 163/15/155 
f 157/4/149 3/3/3 156/2/148 
f 157/4/149 1/1/1 3/3/3 
f 156/2/148 6/6/6 158/5/150 
f 156/2/148 3/3/3 6/6/6 
f 158/5/150 8/8/8 159/7/151 
f 158/5/150 6/6/6 8/8/8 
f 159/7/151 10/10/10 160/9/152 
f 159/7/151 8/8/8 10/10/10 
f 160/9/152 12/12/12 161/11/153 
f 160/9/152 10/10/10 12/12/12 
f 161/11/153 14/14/14 162/13/154 
f 161/11/153 12/12/12 14/14/14 
f 162/13/154 16/16/16 163/15/155 
f 162/13/154 14/14/14 16/16/16 
f 80/80/90 92/89/156 90/90/90 
f 80/80/90 107/72/156 92/89/156 
f 107/72/156 93/88/157 92/89/156 
f 107/72/156 115/64/157 93/88/157 
f 115/64/157 94/87/158 93/88/157 
f 115/64/157 123/56/158 94/87/158 
f 123/56/158 95/86/159 94/87/158 
f 123/56/158 131/48/159 95/86/159 
f 131/48/159 96/85/160 95/86/159 
f 131/48/159 139/40/160 96/85/160 
f 139/40/160 97/84/161 96/85/160 
f 139/40/160 147/32/161 97/84/161 
f 147/32/161 98/83/162 97/84/161 
f 147/32/161 155/24/162 98/83/162 
f 155/24/162 99/81/163 98/83/162 
f 155/24/162 163/15/163 99/81/163 
f 163/15/163 82/82/81 99/81/163 
f 163/15/163 16/16/81 82/82/81 
f 164/92/164 165/93/164 166/94/164 
f 164/92/164 167/95/164 165/93/164 
f 164/92/164 168/96/164 167/95/164 
f 164/92/164 169/97/164 168/96/164 
f 164/92/164 170/98/164 169/97/164 
f 164/92/164 171/99/164 170/98/164 
f 164/92/164 172/100/164 171/99/164 
f 164/92/164 173/101/164 172/100/164 
f 164/92/164 174/102/164 173/101/164 
f 164/92/164 175/101/164 174/102/164 
f 164/92/164 176/100/164 175/101/164 
f 164/92/164 177/99/164 176/100/164 
f 164/92/164 178/98/164 177/99/164 
f 164/92/164 179/97/164 178/98/164 
f 164/92/164 180/96/164 179/97/164 
f 164/92/164 181/95/164 180/96/164 
f 164/92/164 182/93/164 181/95/164 
f 164/92/164 166/94/164 182/93/164 
# 324 faces

